<?xml version="1.0" encoding="utf-8"?>
<!-- Generator: Adobe Illustrator 17.0.0, SVG Export Plug-In . SVG Version: 6.00 Build 0)  -->
<!DOCTYPE svg PUBLIC "-//W3C//DTD SVG 1.1//EN" "http://www.w3.org/Graphics/SVG/1.1/DTD/svg11.dtd">
<svg version="1.1" id="Layer_1" xmlns="http://www.w3.org/2000/svg" xmlns:xlink="http://www.w3.org/1999/xlink" x="0px" y="0px"
	 width="128px" height="128px" viewBox="0 0 128 128" enable-background="new 0 0 128 128" xml:space="preserve">
<path fill="none" stroke="#000000" stroke-width="5" stroke-miterlimit="10" d="M45.301,35.744V25.31
	c0-1.547,1.254-2.802,2.802-2.802h31.483c1.547,0,2.802,1.254,2.802,2.802v10.434"/>
<path fill="none" stroke="#000000" stroke-width="3" stroke-miterlimit="10" d="M71.746,63.528c0,0-0.113-9.056-8.052-9.056
	c-7.944,0-8.248,8.861-8.248,8.861s-9.045,0.468-9.045,8.356s8.211,8.176,8.211,8.176l18.459-0.001c0,0,8.211-0.291,8.211-8.176
	S71.746,63.528,71.746,63.528z"/>
<g>
	<path d="M45.712,72.666C28.94,68.219,13.874,59.734,13.024,59.251L15,55.773c0.2,0.114,14.911,8.395,31.095,12.83"/>
	<path d="M81.469,68.651c16.347-4.423,31.335-12.768,31.538-12.883l1.96,3.487c-0.859,0.482-16.033,8.935-32.852,13.387"/>
</g>
<path fill="none" stroke="#000000" stroke-width="4" stroke-miterlimit="10" d="M113.634,95.685c0,1.657-1.343,3-3,3H17.366
	c-1.657,0-3-1.343-3-3V40.456c0-1.657,1.343-3,3-3h93.267c1.657,0,3,1.343,3,3V95.685z"/>
<path display="none" fill="none" stroke="#000000" stroke-width="4" stroke-miterlimit="10" d="M137.988,68.512
	c0,0-28.152,15.825-50.144,15.825S38.012,68.512,38.012,68.512"/>
</svg>
